<?xml version="1.0" standalone="no"?>
<!DOCTYPE svg PUBLIC "-//W3C//DTD SVG 20010904//EN"
 "http://www.w3.org/TR/2001/REC-SVG-20010904/DTD/svg10.dtd">
<svg version="1.0" xmlns="http://www.w3.org/2000/svg"
 width="3424.000000pt" height="3424.000000pt" viewBox="0 0 3424.000000 3424.000000"
 preserveAspectRatio="xMidYMid meet">
<metadata>
Created by potrace 1.14, written by Peter Selinger 2001-2017
</metadata>
<g transform="translate(0.000000,3424.000000) scale(0.100000,-0.100000)"
fill="#000000" stroke="none">
<path d="M23130 20945 c-74 -13 -101 -20 -150 -41 -187 -80 -320 -223 -383
-414 -16 -47 -37 -174 -37 -225 0 -16 0 -37 -1 -45 0 -27 10 -144 16 -175 13
-71 18 -91 23 -100 4 -5 8 -19 9 -30 6 -34 84 -168 129 -222 118 -138 324
-218 554 -216 258 3 425 75 569 248 34 40 87 143 106 206 45 147 54 410 17
524 -3 11 -7 23 -8 28 -1 4 -3 9 -4 12 -4 8 -7 17 -15 53 -4 17 -11 32 -16 32
-5 0 -9 9 -9 20 0 11 -4 20 -10 20 -5 0 -10 5 -10 11 0 27 -158 209 -182 209
-4 0 -13 6 -20 13 -23 22 -139 72 -193 82 -98 19 -140 23 -225 23 -52 -1 -124
-6 -160 -13z"/>
<path d="M26414 20815 c-2 -5 -2 -1675 -1 -3710 l2 -3700 569 0 570 0 7 27 c4
16 4 30 0 32 -4 3 -6 24 -4 48 5 57 5 57 0 101 -3 20 -2 39 2 42 6 3 7 50 1
50 -6 0 -5 65 1 87 4 14 5 29 1 32 -7 8 -10 59 -3 71 8 14 9 45 1 50 -3 2 -5
23 -3 47 5 57 5 57 0 101 -3 20 -2 39 2 42 6 3 7 50 1 50 -6 0 -5 65 1 87 4
14 5 29 1 32 -9 10 -9 60 0 73 5 6 5 14 -1 17 -6 4 -6 18 -1 35 4 16 6 32 2
35 -7 8 -10 59 -3 71 8 14 9 45 1 50 -3 2 -5 23 -3 47 5 57 5 57 0 101 -3 20
-2 39 2 42 6 3 7 50 1 50 -6 0 -5 65 1 87 4 14 5 29 1 32 -9 10 -9 60 0 73 5
6 5 14 -1 17 -6 4 -6 18 -1 35 4 16 6 32 2 35 -7 8 -10 59 -3 71 8 14 9 45 1
50 -3 2 -5 23 -3 47 2 24 4 50 3 58 -3 88 -1 253 3 256 5 5 58 12 152 19 28 2
70 6 95 9 101 13 141 17 192 21 29 2 80 7 112 10 32 4 77 8 100 10 23 2 41 4
41 5 0 1 21 3 47 5 26 2 47 1 45 -3 -1 -4 15 -32 35 -62 20 -30 65 -102 101
-160 36 -58 82 -130 101 -160 19 -31 40 -68 47 -83 7 -15 16 -27 21 -27 4 0 8
-5 8 -10 0 -6 18 -39 39 -73 21 -34 81 -136 133 -227 92 -160 120 -210 188
-335 18 -33 45 -82 60 -110 144 -263 450 -877 450 -903 0 -7 5 -12 10 -12 6 0
10 -6 10 -13 0 -26 32 -77 48 -79 9 0 303 -2 654 -3 l636 -1 -50 95 c-28 53
-55 102 -60 109 -6 6 -7 12 -4 12 4 0 -1 12 -11 28 -11 15 -33 54 -50 87 -17
33 -52 100 -78 150 -25 49 -51 95 -57 102 -6 7 -7 13 -3 13 5 0 1 8 -7 18 -8
9 -32 51 -53 92 -21 41 -43 78 -49 82 -6 4 -8 8 -4 8 7 0 0 13 -54 108 -11 20
-37 67 -57 103 -20 37 -52 95 -72 130 -20 35 -47 84 -61 109 -48 86 -67 118
-169 291 -56 96 -107 184 -113 196 -6 13 -14 23 -18 23 -5 0 -8 4 -8 9 0 5
-28 54 -62 110 -35 56 -67 109 -73 119 -21 36 -139 221 -196 307 -32 50 -62
97 -66 105 -4 8 -9 17 -12 20 -13 11 -111 161 -111 170 0 4 -3 10 -8 12 -4 2
-36 46 -71 98 -36 52 -69 98 -74 101 -13 9 -6 20 79 118 57 67 190 236 265
336 41 55 78 104 82 110 5 5 35 48 68 95 32 47 64 91 69 97 6 7 55 81 110 165
55 84 104 158 108 164 5 5 53 84 108 175 54 90 103 167 109 171 5 4 6 8 1 8
-5 0 -3 7 4 15 17 21 49 76 56 98 4 9 9 17 13 17 4 0 13 16 20 35 7 19 17 35
22 35 5 0 9 9 9 19 0 11 4 22 9 26 6 3 16 18 24 33 7 15 32 61 54 102 22 41
62 118 89 170 27 52 53 98 57 101 5 3 9 9 8 12 0 4 42 92 93 197 51 105 90
192 87 193 -3 2 -283 3 -623 3 l-616 -1 -145 -285 c-79 -157 -161 -316 -182
-355 -45 -84 -141 -254 -155 -275 -5 -8 -19 -32 -30 -53 -11 -20 -63 -105
-115 -188 -52 -84 -95 -154 -95 -156 0 -2 -5 -9 -11 -16 -6 -7 -38 -55 -72
-107 -33 -52 -64 -97 -67 -100 -3 -3 -19 -26 -35 -52 -17 -27 -33 -48 -37 -48
-5 0 -8 -4 -8 -10 0 -8 -119 -178 -157 -225 -5 -5 -20 -26 -33 -45 -13 -19
-32 -44 -42 -54 -10 -11 -28 -35 -41 -53 -12 -18 -31 -33 -42 -34 -41 -3 -70
-6 -220 -24 -16 -2 -59 -6 -95 -10 -124 -12 -155 -16 -195 -20 -55 -6 -113
-12 -160 -16 -37 -4 -40 -2 -46 30 -4 18 -3 46 1 61 5 16 6 31 2 34 -7 8 -10
59 -3 71 8 14 9 45 1 50 -3 2 -5 23 -3 47 5 57 5 57 0 101 -3 20 -2 39 2 42 6
3 7 50 1 50 -6 0 -5 65 1 87 4 14 5 29 1 32 -7 8 -10 59 -3 71 8 14 9 45 1 50
-3 2 -5 23 -3 47 5 57 5 57 0 101 -3 20 -2 39 2 42 6 3 7 36 1 55 -5 16 -1
691 4 699 4 5 3 12 -2 15 -5 3 -7 24 -5 48 5 57 5 57 0 101 -3 20 -2 39 2 42
6 3 7 50 1 50 -6 0 -5 65 1 87 4 14 5 29 1 32 -7 8 -10 59 -3 71 8 14 9 45 1
50 -3 2 -5 23 -3 47 5 57 5 57 0 101 -3 20 -2 39 2 42 6 3 7 50 1 50 -6 0 -5
65 1 87 4 14 5 29 1 32 -7 8 -10 59 -3 71 8 14 9 45 1 50 -3 2 -5 23 -3 47 5
57 5 57 0 101 -3 20 -2 39 2 42 6 3 7 36 1 55 -5 16 -1 691 4 699 4 5 3 12 -2
15 -5 3 -7 24 -5 48 5 57 5 57 0 101 -3 20 -2 39 2 42 6 3 7 50 1 50 -6 0 -5
65 1 87 4 14 5 29 1 32 -7 8 -10 59 -3 71 8 14 9 45 1 50 -3 2 -5 23 -3 47 4
50 4 55 1 88 l-3 25 -569 0 c-380 0 -569 -3 -572 -10z"/>
<path d="M4 20711 c-2 -2 -4 -1648 -4 -3656 l0 -3652 1243 3 c683 1 1267 5
1297 8 30 2 87 7 125 11 86 7 166 16 260 29 17 2 59 9 95 16 36 7 74 13 85 15
40 6 91 16 145 30 30 8 66 16 80 19 24 4 290 90 320 103 8 3 17 7 20 8 23 8
54 21 108 46 34 16 65 28 68 28 4 0 10 4 14 11 4 6 13 13 21 14 25 5 69 29 69
38 0 4 4 8 10 8 12 0 132 74 179 110 99 76 226 193 273 251 14 19 36 45 47 59
11 14 24 30 29 35 24 30 72 105 72 113 0 5 6 14 13 20 18 15 100 184 132 272
15 41 31 84 36 95 5 11 11 30 14 43 2 13 7 32 10 42 7 21 14 52 22 95 8 46 11
60 13 60 2 0 5 21 14 91 4 28 8 60 11 72 14 75 25 391 13 398 -4 3 -3 15 2 28
5 13 7 26 4 29 -2 2 -7 26 -9 53 -10 101 -16 154 -26 211 -6 32 -12 69 -14 83
-3 19 -50 187 -69 245 -29 91 -134 303 -178 360 -65 84 -88 116 -88 121 0 9
-220 223 -256 250 -74 54 -304 182 -304 168 0 -2 -12 2 -27 10 -38 19 -159 54
-263 76 -83 17 -84 18 -55 29 17 7 39 14 50 15 11 1 27 5 35 8 8 4 40 14 70
24 71 23 244 112 312 161 79 56 186 156 256 239 57 68 190 276 208 324 1 3 5
15 9 28 4 12 12 22 18 22 6 0 8 3 4 6 -3 4 0 18 7 33 19 36 74 202 81 241 3
19 8 36 10 40 2 4 7 22 10 41 3 19 8 48 12 64 3 17 7 39 8 50 1 11 6 61 10
110 14 147 9 405 -10 535 -3 19 -7 51 -10 70 -19 146 -95 383 -168 525 -29 55
-55 105 -60 110 -4 6 -33 46 -64 90 -64 90 -285 315 -309 315 -2 0 -32 20 -66
45 -34 25 -67 45 -74 45 -7 0 -14 4 -16 9 -4 12 -263 141 -283 141 -4 0 -21 6
-38 14 -105 45 -399 124 -527 140 -19 3 -51 7 -70 10 -47 8 -116 16 -165 21
-22 2 -61 6 -87 9 -26 3 -100 9 -165 12 -129 7 -2532 12 -2539 5z m2586 -1014
c14 -3 48 -8 75 -11 64 -7 257 -55 269 -67 6 -5 17 -9 25 -9 20 0 187 -83 225
-113 65 -49 166 -156 205 -216 94 -147 135 -311 135 -541 -1 -148 -9 -284 -19
-299 -2 -4 -7 -23 -10 -42 -3 -19 -9 -43 -14 -54 -4 -11 -14 -38 -21 -60 -19
-63 -78 -175 -122 -234 -53 -70 -162 -177 -198 -194 -8 -4 -28 -16 -45 -27
-16 -11 -42 -25 -57 -31 -16 -6 -28 -16 -28 -22 0 -6 -3 -8 -6 -4 -3 3 -35 -8
-70 -23 -35 -16 -64 -27 -64 -24 0 2 -9 0 -21 -6 -11 -6 -28 -13 -37 -15 -9
-1 -35 -8 -57 -14 -22 -5 -53 -13 -70 -15 -16 -3 -41 -8 -55 -11 -44 -9 -113
-17 -165 -20 -27 -2 -50 -4 -50 -5 0 -2 -282 -4 -627 -5 -564 -1 -628 0 -629
14 -4 69 -3 134 3 137 4 3 4 15 0 27 -9 26 -8 124 1 133 3 3 3 16 -1 28 -9 25
-8 123 0 132 4 3 3 16 -1 28 -8 25 -7 123 2 132 3 3 3 16 -1 28 -9 25 -8 123
0 132 4 3 3 16 -1 28 -8 25 -7 123 2 132 3 3 3 16 -1 28 -7 18 -8 113 -2 134
1 4 1 12 0 17 -6 26 -4 377 2 381 4 3 4 15 0 27 -9 27 -8 174 1 183 4 4 4 11
0 17 -9 15 -9 248 0 254 4 2 5 8 2 13 -3 5 -7 23 -9 40 l-4 31 707 -4 c388 -2
717 -6 731 -10z m-16 -3080 c117 -13 158 -20 266 -42 104 -21 116 -24 147 -36
16 -6 30 -10 33 -11 3 0 20 -6 39 -14 18 -8 37 -14 42 -14 20 0 167 -80 218
-118 157 -118 264 -280 307 -464 2 -10 6 -28 9 -40 3 -13 8 -41 10 -63 2 -22
5 -40 6 -40 9 0 13 -259 5 -340 -12 -115 -14 -130 -24 -155 -5 -14 -10 -28
-10 -33 -4 -64 -67 -226 -128 -326 -101 -169 -217 -277 -383 -361 -46 -23 -88
-43 -95 -45 -6 -1 -18 -5 -26 -8 -20 -8 -108 -34 -145 -43 -44 -11 -47 -11
-85 -18 -19 -3 -46 -8 -60 -10 -140 -25 -236 -28 -885 -28 -341 0 -629 1 -640
1 -18 1 -20 8 -19 86 0 47 3 88 7 91 3 3 2 16 -2 28 -8 25 -7 123 2 132 3 3 3
16 -1 28 -7 18 -8 113 -2 134 1 4 1 12 0 17 -6 26 -4 377 2 381 4 3 4 15 0 27
-9 27 -8 174 1 183 4 4 4 11 0 17 -9 14 -10 248 -1 253 4 3 4 15 0 27 -9 27
-8 174 1 183 4 4 4 11 0 17 -9 14 -10 248 -1 253 4 3 4 15 0 27 -9 27 -8 169
1 184 4 7 4 14 0 16 -6 4 -8 72 -4 129 1 9 1337 3 1415 -5z"/>
<path d="M7787 18794 c-1 -1 -51 -4 -112 -8 -157 -9 -350 -40 -465 -74 -30 -8
-60 -17 -66 -18 -68 -12 -374 -140 -374 -156 0 -4 -6 -8 -13 -8 -17 0 -145
-80 -237 -149 -77 -57 -279 -252 -340 -330 -19 -24 -41 -50 -47 -57 -7 -7 -13
-18 -13 -24 0 -6 -7 -13 -15 -16 -8 -4 -15 -10 -15 -14 0 -5 -19 -37 -42 -72
-138 -206 -254 -489 -332 -808 -9 -36 -17 -79 -19 -95 -2 -17 -7 -36 -11 -43
-6 -10 -16 -86 -19 -144 -1 -10 -4 -18 -7 -18 -3 0 -5 -10 -6 -22 0 -13 -4
-52 -8 -88 -24 -204 -30 -312 -30 -595 0 -284 6 -421 28 -600 2 -16 7 -57 11
-90 7 -68 10 -83 21 -140 4 -22 9 -49 10 -60 1 -11 3 -21 4 -22 3 -4 5 -11 15
-68 4 -27 10 -54 11 -60 2 -5 12 -44 23 -85 24 -93 78 -265 96 -305 8 -16 28
-64 45 -105 68 -162 214 -402 317 -520 132 -151 291 -287 438 -374 87 -52 215
-122 225 -123 3 0 23 -8 45 -18 46 -19 193 -74 215 -80 8 -2 51 -13 95 -25 44
-12 91 -24 105 -26 14 -2 45 -9 70 -14 57 -12 104 -20 155 -26 22 -2 56 -7 75
-11 71 -12 171 -16 400 -17 247 -1 336 4 525 29 22 3 60 7 85 10 67 8 102 13
130 19 14 4 44 8 67 10 23 3 66 9 95 15 29 5 71 13 93 16 22 3 67 10 100 17
33 6 69 12 80 14 11 1 20 3 20 4 0 1 9 3 20 4 46 7 101 17 118 22 11 3 29 7
40 9 12 2 63 13 112 25 50 12 98 23 108 25 10 2 27 7 37 10 10 3 27 8 37 10
10 2 50 13 88 25 39 12 75 22 80 24 44 11 55 19 50 36 -3 10 -8 31 -10 46 -3
16 -32 139 -65 274 -34 135 -62 253 -63 263 -1 9 -5 17 -10 17 -4 0 -6 4 -3 9
3 4 1 23 -4 42 -6 19 -13 48 -15 64 -3 17 -9 41 -14 55 -5 14 -15 53 -21 87
-18 91 -25 98 -80 79 -77 -25 -214 -65 -240 -70 -14 -2 -26 -5 -27 -7 -2 -1
-6 -2 -10 -4 -5 -1 -20 -5 -34 -9 -14 -4 -34 -9 -45 -11 -10 -2 -20 -4 -21 -5
-3 -3 -3 -3 -58 -15 -22 -4 -44 -9 -50 -11 -18 -5 -309 -62 -350 -68 -104 -17
-159 -24 -230 -31 -27 -3 -68 -7 -90 -10 -153 -18 -503 -26 -590 -13 -27 4
-70 10 -95 14 -25 3 -53 7 -62 10 -9 3 -25 7 -36 9 -50 9 -203 66 -257 95 -83
45 -183 120 -237 178 -58 62 -138 170 -138 187 0 7 -4 15 -9 17 -17 6 -111
228 -126 298 -2 8 -10 44 -19 80 -8 36 -18 83 -22 104 -3 21 -7 47 -9 58 -2
11 -7 48 -10 84 l-7 64 1626 0 c1294 0 1626 3 1627 13 0 13 5 101 14 277 6
110 9 160 21 375 4 72 7 153 7 180 -1 79 -18 370 -23 370 -1 0 -3 20 -5 45 -5
59 -20 163 -31 220 -3 14 -7 39 -10 55 -3 17 -14 66 -25 110 -10 44 -21 89
-23 101 -8 40 -98 299 -112 322 -8 12 -12 22 -9 22 8 0 -129 261 -167 316 -65
95 -150 204 -166 214 -10 5 -13 10 -9 10 15 0 -215 221 -265 255 -159 108
-217 143 -306 188 -90 45 -211 94 -272 112 -8 2 -40 11 -70 20 -81 23 -92 26
-123 31 -16 2 -32 6 -37 9 -4 3 -25 7 -46 10 -22 3 -50 7 -64 10 -14 3 -43 8
-65 11 -22 3 -56 7 -75 10 -68 10 -445 25 -453 18z m308 -1049 c28 -4 60 -9
72 -10 91 -12 259 -89 348 -159 57 -44 155 -148 155 -164 0 -5 9 -17 19 -29
61 -65 159 -337 185 -513 3 -19 8 -45 10 -57 8 -36 17 -160 21 -275 l4 -108
-37 -1 c-46 0 -1968 0 -2001 1 -23 0 -23 0 -16 93 4 50 8 106 10 122 2 17 6
55 9 85 3 30 11 78 16 105 6 28 13 63 16 79 2 16 9 37 14 46 5 10 7 20 4 22
-7 8 52 180 89 261 83 178 204 308 369 395 52 27 137 60 163 63 6 1 18 5 27
10 9 5 34 12 55 15 21 3 41 8 44 10 3 2 37 6 75 9 38 4 70 8 71 9 5 5 233 -2
278 -9z"/>
<path d="M12866 18793 c-1 -1 -51 -5 -112 -7 -60 -2 -109 -5 -109 -6 0 0 -27
-3 -60 -5 -91 -7 -161 -17 -355 -51 -14 -3 -43 -10 -65 -16 -22 -5 -49 -12
-60 -15 -24 -5 -35 -8 -55 -15 -8 -3 -53 -18 -100 -33 -107 -35 -224 -87 -318
-142 -41 -24 -77 -43 -82 -43 -5 0 -10 -4 -12 -8 -1 -4 -31 -29 -66 -56 -60
-46 -151 -132 -200 -190 -69 -82 -179 -272 -207 -357 -4 -13 -8 -26 -10 -29
-11 -26 -17 -45 -35 -112 -24 -87 -25 -95 -34 -158 -3 -25 -8 -56 -11 -69 -24
-126 -21 -451 6 -606 10 -59 12 -71 24 -130 7 -41 55 -185 68 -210 6 -11 12
-22 12 -25 2 -15 62 -123 96 -172 51 -75 141 -170 204 -216 27 -20 52 -40 53
-44 2 -5 9 -8 16 -8 7 0 21 -8 32 -17 32 -28 196 -116 314 -167 36 -16 79 -34
95 -42 17 -7 66 -26 110 -42 44 -16 89 -33 100 -38 11 -4 23 -8 28 -9 4 -2 9
-4 12 -5 3 -1 8 -3 13 -5 4 -1 14 -4 22 -8 21 -8 328 -103 365 -113 42 -10 45
-11 48 -14 1 -1 9 -3 17 -5 26 -5 144 -36 175 -45 17 -5 89 -24 160 -41 72
-17 150 -37 175 -44 125 -35 237 -68 255 -75 11 -4 58 -22 105 -40 145 -55
212 -92 271 -150 62 -60 91 -109 115 -197 19 -68 25 -232 10 -252 -6 -8 -9
-16 -7 -18 8 -8 -12 -80 -35 -125 -79 -156 -283 -244 -639 -274 -120 -11 -550
-11 -650 -1 -82 8 -100 11 -170 22 -22 3 -53 8 -70 10 -16 2 -45 6 -62 9 -18
3 -48 8 -65 12 -96 16 -215 41 -373 80 -36 9 -71 17 -78 18 -7 2 -19 5 -27 8
-8 3 -71 20 -140 38 -69 17 -132 34 -140 38 -8 3 -19 6 -25 7 -17 2 -159 46
-180 55 -40 18 -85 22 -86 8 0 -7 -2 -20 -4 -28 -2 -8 -6 -25 -9 -38 -3 -13
-8 -32 -11 -42 -3 -10 -8 -27 -10 -37 -2 -10 -19 -85 -39 -166 -20 -82 -38
-158 -41 -170 -2 -12 -11 -49 -20 -82 -8 -33 -17 -69 -19 -80 -2 -11 -9 -40
-16 -65 -7 -25 -14 -54 -16 -65 -2 -11 -15 -65 -28 -120 -14 -55 -22 -103 -18
-106 8 -7 180 -60 272 -84 36 -9 74 -21 85 -25 21 -9 341 -87 385 -94 14 -3
26 -5 28 -7 4 -3 117 -22 117 -19 0 1 13 -4 29 -10 17 -6 48 -13 70 -15 23 -2
48 -6 56 -8 33 -8 135 -25 190 -32 14 -1 44 -5 68 -9 108 -16 130 -18 172 -22
25 -2 63 -6 85 -8 153 -20 718 -28 860 -13 39 4 95 10 125 13 56 5 70 7 170
24 82 14 124 22 135 24 6 2 28 7 50 11 55 12 54 12 60 15 3 1 8 3 13 4 250 65
475 173 649 312 71 56 223 214 223 230 0 7 4 14 8 16 27 11 172 273 172 310 0
10 4 18 10 18 5 0 9 3 8 8 -2 9 13 63 21 77 3 6 6 15 7 20 1 6 9 37 18 70 8
33 18 78 21 100 3 22 8 46 10 52 6 18 19 141 19 190 1 24 3 43 6 43 8 0 4 135
-3 147 -4 7 -4 14 1 17 4 2 7 22 5 43 -1 21 -4 70 -7 110 -6 90 -26 227 -38
263 -3 8 -11 40 -18 70 -7 30 -17 62 -21 70 -4 8 -16 37 -25 63 -23 65 -106
209 -147 254 -53 59 -120 123 -149 141 -16 9 -28 20 -28 24 0 4 -6 8 -14 8 -8
0 -16 3 -18 8 -5 11 -66 52 -78 52 -5 0 -10 5 -10 10 0 6 -7 10 -15 10 -8 0
-15 5 -15 10 0 6 -5 10 -11 10 -6 0 -24 9 -40 21 -16 11 -29 17 -29 14 0 -3
-12 2 -27 12 -32 21 -133 71 -208 104 -92 39 -298 120 -314 122 -9 1 -22 6
-28 10 -7 5 -13 5 -13 0 0 -4 -4 -3 -8 2 -5 9 -63 31 -102 40 -38 9 -129 38
-142 45 -10 6 -25 10 -33 10 -9 0 -51 11 -93 24 -69 21 -350 100 -362 101 -3
0 -32 9 -65 19 -33 10 -89 28 -125 38 -153 46 -431 143 -499 176 -163 76 -251
224 -245 412 3 78 8 111 25 142 7 12 11 23 10 23 -1 0 3 13 9 30 9 24 123 149
125 136 0 -2 20 6 45 19 47 24 170 62 170 53 0 -3 6 -1 13 4 6 6 21 9 31 7 11
-1 25 0 30 4 12 7 21 9 91 16 235 25 588 26 805 1 124 -14 210 -26 280 -39 14
-3 41 -8 60 -10 48 -8 92 -16 110 -21 8 -2 38 -7 65 -11 28 -3 58 -10 67 -15
9 -5 21 -9 25 -8 4 1 10 0 13 -1 8 -3 44 -10 72 -14 15 -3 36 -7 47 -11 11 -3
28 -7 38 -9 10 -2 36 -9 58 -14 22 -6 51 -13 65 -16 56 -11 308 -78 341 -91
20 -8 39 -11 43 -8 3 3 11 2 18 -4 7 -5 25 -10 41 -11 22 -1 27 3 28 21 0 12
2 29 4 37 2 8 6 31 10 50 3 19 10 53 15 75 5 22 11 54 14 70 3 17 8 41 11 55
3 14 8 39 10 55 3 17 8 37 10 45 2 8 7 29 9 45 3 17 22 109 41 205 20 96 38
184 39 195 2 11 6 34 10 50 7 35 11 54 21 113 5 34 4 42 -9 43 -9 1 -19 2 -23
4 -5 1 -26 5 -48 10 -22 4 -44 11 -50 14 -5 4 -17 7 -25 6 -8 -1 -26 3 -40 8
-20 7 -202 47 -370 81 -14 3 -35 7 -46 10 -12 2 -39 7 -60 10 -22 4 -46 9 -54
11 -8 3 -31 7 -50 9 -19 2 -75 11 -125 20 -49 8 -108 17 -130 20 -22 3 -51 8
-65 10 -33 6 -97 14 -168 21 -76 8 -117 13 -117 15 0 1 -27 3 -60 5 -33 3 -82
7 -110 10 -116 12 -610 27 -619 18z"/>
<path d="M18457 18794 c-1 -2 -34 -4 -72 -5 -38 -1 -87 -6 -109 -10 -23 -4
-57 -9 -76 -12 -44 -6 -272 -57 -283 -64 -4 -2 -18 -6 -30 -9 -28 -5 -289 -93
-372 -125 -33 -13 -62 -24 -65 -24 -10 -3 -46 -17 -75 -31 -16 -7 -64 -28
-105 -45 -41 -17 -99 -42 -128 -55 -74 -34 -77 -32 -78 29 -1 66 -15 250 -19
257 -2 3 -252 5 -557 5 l-553 0 0 -2651 -1 -2650 567 0 c312 1 570 4 573 7 9
9 13 117 5 131 -4 6 -3 22 2 35 5 15 5 23 -2 23 -6 0 -7 5 -3 11 4 6 6 91 5
188 -1 97 -2 185 -2 196 0 25 0 1664 1 1685 0 39 0 257 0 270 0 8 0 71 -1 140
0 69 0 134 0 145 0 11 1 129 2 263 1 133 -1 245 -4 248 -3 3 -2 17 3 30 6 16
6 24 -1 24 -6 0 -7 5 -3 11 4 7 7 126 6 265 0 149 4 254 9 254 5 0 60 23 122
51 61 28 116 52 122 54 5 1 36 14 69 28 32 15 60 27 62 27 1 0 15 5 31 11 15
6 29 10 30 10 2 0 28 11 58 25 31 13 64 26 73 27 9 1 22 5 27 8 9 5 80 31 95
34 4 1 73 22 105 31 64 20 219 55 252 57 24 1 43 5 43 9 0 14 294 1 352 -15
192 -55 317 -161 416 -352 35 -68 62 -131 68 -159 2 -10 10 -42 18 -71 9 -28
18 -69 22 -91 3 -21 7 -41 9 -44 2 -3 6 -33 10 -65 4 -33 9 -71 12 -85 3 -14
7 -785 8 -1715 2 -929 3 -1693 4 -1696 2 -8 1135 -7 1141 2 6 9 3 3332 -4
3464 -4 97 -11 178 -21 260 -2 22 -7 63 -10 90 -3 28 -8 58 -11 67 -3 9 -7 32
-9 50 -4 31 -8 53 -21 116 -3 15 -7 34 -8 42 -5 28 -27 105 -58 205 -18 55
-31 103 -30 108 1 4 -2 7 -8 7 -5 0 -10 7 -10 15 0 36 -159 334 -190 355 -4 3
-9 10 -11 16 -12 32 -231 264 -250 264 -4 0 -14 6 -21 13 -24 24 -139 97 -153
97 -7 0 -15 7 -19 15 -3 8 -9 14 -13 13 -4 -1 -34 10 -65 25 -31 15 -60 27
-63 27 -4 0 -21 6 -38 14 -50 22 -154 53 -242 71 -44 9 -89 19 -100 21 -60 13
-420 36 -428 28z"/>
<path d="M21203 18668 c2 -21 -1 -38 -5 -38 -5 0 -6 -5 -3 -11 10 -15 9 -114
0 -130 -5 -7 -4 -14 1 -16 11 -4 10 -116 -2 -134 -4 -8 -3 -10 4 -5 9 5 9 0 2
-18 -5 -14 -5 -28 -1 -30 5 -3 5 -23 1 -44 -4 -21 -3 -49 2 -61 4 -13 4 -30
-2 -42 -6 -10 -7 -19 -3 -19 9 0 8 -104 -2 -119 -3 -6 -3 -11 2 -11 10 0 8
-114 -3 -131 -4 -8 -3 -10 4 -5 9 5 9 0 3 -17 -6 -14 -7 -28 -4 -31 3 -3 6
-32 6 -63 0 -32 4 -60 8 -63 4 -3 43 -4 86 -2 43 1 87 2 98 2 11 -1 54 -1 95
-1 41 1 91 1 110 0 130 -5 227 -3 238 5 7 5 12 5 12 0 0 -11 131 -11 148 0 7
4 12 4 12 -1 0 -10 132 -9 148 1 7 4 12 4 12 -1 0 -10 132 -9 148 1 7 4 12 4
12 -1 0 -10 132 -9 148 1 7 4 12 4 12 -1 0 -10 132 -9 148 1 7 4 12 3 12 -1 0
-5 27 -8 60 -7 l60 1 0 -1623 0 -1624 -828 0 -829 0 1 -512 1 -513 2185 0
2185 0 1 513 2 512 -784 0 c-740 0 -784 1 -785 18 -2 45 -1 988 1 997 1 6 1
15 0 20 -2 14 -3 1888 0 1900 1 6 1 15 0 20 -1 6 -2 305 -3 665 l-2 655 -1357
0 -1358 0 3 -37z"/>
<path d="M32670 15020 l-45 -5 0 -790 c-1 -434 1 -797 3 -806 3 -14 82 -16
808 -16 l804 0 0 809 0 808 -487 1 c-269 0 -612 1 -763 2 -151 1 -295 0 -320
-3z"/>
</g>
</svg>
